<svg width="48" height="48" viewBox="0 0 46 36" fill="none" xmlns="http://www.w3.org/2000/svg">
<g clip-path="url(#clip0_304_19)">
<path d="M4.49221 27.4405C4.54212 18.7951 4.59079 10.1622 4.63821 1.54168C4.64024 1.26425 4.73875 0.996113 4.91694 0.783034C5.09512 0.569955 5.34193 0.425134 5.61526 0.373283C8.75979 -0.279972 13.7162 -0.115725 17.0816 1.17212C19.4515 2.02548 21.529 3.53385 23.0712 5.52094C24.6627 3.62897 26.7297 2.19259 29.0607 1.35877C32.239 0.14931 37.0606 -0.141856 40.5158 0.373283C40.801 0.411838 41.0628 0.551514 41.2532 0.766753C41.4436 0.981992 41.55 1.2584 41.5528 1.54541V27.5487C41.5523 27.7064 41.5206 27.8624 41.4595 28.0079C41.3984 28.1533 41.3092 28.2853 41.1968 28.3963C41.0845 28.5072 40.9513 28.595 40.8049 28.6545C40.6585 28.7141 40.5017 28.7442 40.3436 28.7433C40.2503 28.7419 40.1575 28.7307 40.0666 28.7097C37.1159 28.3279 34.1169 28.6072 31.2881 29.5272C29.1983 30.3039 27.2149 31.3398 25.3846 32.6105C27.9584 31.8141 30.6411 31.4237 33.3358 31.4533C36.7936 31.5082 40.2348 31.9439 43.5967 32.7524V5.5396H44.7984C45.1171 5.5396 45.4227 5.66585 45.6481 5.89057C45.8734 6.11528 46 6.42006 46 6.73786V34.3202C46 34.638 45.8734 34.9428 45.6481 35.1675C45.4227 35.3922 45.1171 35.5185 44.7984 35.5185C44.671 35.5174 44.5446 35.496 44.424 35.455C40.8026 34.462 37.072 33.9191 33.3171 33.8386C29.9987 33.7969 26.7101 34.4665 23.6739 35.8022C23.4702 35.9314 23.2339 36 22.9925 36C22.7512 36 22.5148 35.9314 22.3112 35.8022C19.275 34.4662 15.9864 33.7966 12.668 33.8386C8.92152 33.9237 5.19986 34.4691 1.58726 35.4625C1.46669 35.5034 1.3403 35.5249 1.21291 35.5259C1.05354 35.5274 0.895452 35.4973 0.747868 35.4372C0.600284 35.3772 0.466149 35.2885 0.353272 35.1763C0.240396 35.0641 0.151033 34.9306 0.0903868 34.7836C0.0297408 34.6367 -0.000976392 34.4791 2.36557e-05 34.3202V6.73786C2.36557e-05 6.42006 0.126627 6.11528 0.351982 5.89057C0.577337 5.66585 0.882984 5.5396 1.20168 5.5396H2.40334V32.7524C5.76523 31.9439 9.20641 31.5082 12.6643 31.4533C15.5529 31.4192 18.4268 31.8697 21.1657 32.786C19.4357 31.3906 17.464 30.3228 15.3483 29.6354C12.7279 28.7768 8.72984 28.4894 5.80618 28.7395C5.64766 28.7549 5.48767 28.7387 5.33549 28.6919C5.1833 28.6451 5.04198 28.5686 4.91971 28.4668C4.79745 28.365 4.6967 28.24 4.62331 28.0991C4.54992 27.9581 4.50535 27.8041 4.49221 27.6458C4.48843 27.5774 4.48843 27.5089 4.49221 27.4405ZM27.5671 24.0398C27.4727 24.1099 27.3648 24.16 27.2502 24.187C27.1356 24.2139 27.0167 24.2171 26.9008 24.1964C26.785 24.1757 26.6746 24.1315 26.5765 24.0666C26.4784 24.0016 26.3947 23.9173 26.3306 23.8189C26.2665 23.7204 26.2233 23.6099 26.2037 23.4941C26.1841 23.3784 26.1885 23.2598 26.2167 23.1458C26.2449 23.0318 26.2962 22.9248 26.3675 22.8314C26.4388 22.738 26.5285 22.6601 26.6312 22.6026C28.0124 21.7475 29.4967 21.0702 31.0485 20.5869C32.6232 20.0554 34.2578 19.7206 35.9151 19.5902C36.0276 19.5841 36.1403 19.6001 36.2467 19.6374C36.353 19.6747 36.451 19.7325 36.5349 19.8076C36.6189 19.8826 36.6872 19.9734 36.736 20.0748C36.7847 20.1762 36.813 20.2861 36.8191 20.3984C36.8253 20.5106 36.8092 20.623 36.7718 20.7291C36.7344 20.8351 36.6764 20.9328 36.6011 21.0165C36.5259 21.1002 36.4348 21.1683 36.3331 21.2169C36.2315 21.2656 36.1212 21.2937 36.0087 21.2999C34.5054 21.4254 33.0232 21.7338 31.5951 22.2182C30.1805 22.653 28.827 23.2651 27.5671 24.0398ZM27.6419 17.4102C27.4498 17.532 27.2171 17.5727 26.9949 17.5233C26.7727 17.4739 26.5793 17.3386 26.4571 17.147C26.335 16.9555 26.2942 16.7234 26.3437 16.5018C26.3932 16.2802 26.5289 16.0873 26.7211 15.9656C28.0994 15.1294 29.5754 14.465 31.1159 13.9871C32.6653 13.47 34.2716 13.1416 35.9001 13.0091C36.1229 13.0053 36.3384 13.0878 36.5015 13.2391C36.6646 13.3905 36.7624 13.599 36.7746 13.8209C36.7867 14.0427 36.7121 14.2606 36.5665 14.4287C36.4208 14.5969 36.2155 14.7022 35.9937 14.7225C34.5116 14.8451 33.0497 15.1459 31.64 15.6184C30.239 16.0507 28.8963 16.6525 27.6419 17.4102ZM27.6644 10.803C27.5688 10.8633 27.4622 10.9042 27.3507 10.9234C27.2392 10.9426 27.1251 10.9398 27.0147 10.915C26.9043 10.8902 26.7999 10.844 26.7075 10.779C26.615 10.714 26.5363 10.6314 26.4759 10.5361C26.4154 10.4407 26.3743 10.3344 26.3551 10.2233C26.3358 10.1121 26.3387 9.99826 26.3635 9.8882C26.3884 9.77815 26.4347 9.67405 26.4999 9.58186C26.5651 9.48967 26.6479 9.41118 26.7435 9.35089C28.1197 8.5186 29.5932 7.85792 31.1309 7.38365C32.6753 6.86874 34.2768 6.54283 35.9001 6.4131C36.0127 6.40697 36.1254 6.42302 36.2317 6.46031C36.3381 6.49761 36.436 6.55543 36.52 6.63048C36.6039 6.70553 36.6722 6.79633 36.721 6.89769C36.7697 6.99906 36.798 7.10901 36.8041 7.22127C36.8103 7.33353 36.7942 7.4459 36.7568 7.55195C36.7194 7.65801 36.6614 7.75568 36.5861 7.8394C36.5109 7.92311 36.4198 7.99122 36.3182 8.03984C36.2165 8.08846 36.1063 8.11664 35.9937 8.12276C34.5168 8.24554 33.0601 8.54508 31.655 9.01493C30.2566 9.44633 28.9164 10.0468 27.6644 10.803ZM19.3688 22.6026C19.4715 22.6601 19.5612 22.738 19.6325 22.8314C19.7038 22.9248 19.7551 23.0318 19.7833 23.1458C19.8115 23.2598 19.8159 23.3784 19.7963 23.4941C19.7768 23.6099 19.7336 23.7204 19.6695 23.8189C19.6053 23.9173 19.5217 24.0016 19.4236 24.0666C19.3255 24.1315 19.2151 24.1757 19.0992 24.1964C18.9833 24.2171 18.8644 24.2139 18.7498 24.187C18.6352 24.16 18.5274 24.1099 18.433 24.0398C17.1777 23.2662 15.8293 22.6542 14.4199 22.2182C12.9918 21.7338 11.5096 21.4254 10.0064 21.2999C9.89379 21.2933 9.78363 21.2646 9.68216 21.2155C9.58069 21.1664 9.48991 21.0979 9.415 21.0139C9.34009 20.9298 9.28251 20.8319 9.24556 20.7256C9.20861 20.6194 9.19301 20.5069 9.19965 20.3946C9.20629 20.2824 9.23503 20.1725 9.28424 20.0714C9.33346 19.9702 9.40217 19.8796 9.48647 19.8049C9.57077 19.7302 9.66899 19.6728 9.77554 19.636C9.88209 19.5991 9.99487 19.5836 10.1074 19.5902C11.7647 19.7206 13.3993 20.0554 14.974 20.5869C16.5258 21.0702 18.0101 21.7475 19.3913 22.6026H19.3688ZM19.279 15.9656C19.4711 16.0893 19.6061 16.2841 19.6541 16.5071C19.7022 16.73 19.6595 16.9629 19.5354 17.1545C19.4113 17.3461 19.216 17.4806 18.9924 17.5286C18.7688 17.5765 18.5352 17.534 18.3431 17.4102C17.0888 16.6525 15.7461 16.0507 14.3451 15.6184C12.9354 15.1459 11.4735 14.8451 9.9914 14.7225C9.76354 14.7072 9.55113 14.6022 9.4009 14.4307C9.25066 14.2592 9.1749 14.0352 9.19029 13.808C9.20568 13.5807 9.31095 13.3689 9.48295 13.2191C9.65495 13.0693 9.87959 12.9938 10.1074 13.0091C11.7359 13.1416 13.3423 13.47 14.8916 13.9871C16.4322 14.465 17.9082 15.1294 19.2865 15.9656H19.279ZM19.2565 9.35089C19.3595 9.40709 19.4498 9.48369 19.522 9.57597C19.5942 9.66826 19.6467 9.77429 19.6762 9.88754C19.7058 10.0008 19.7119 10.1189 19.694 10.2346C19.6762 10.3502 19.6348 10.461 19.5724 10.5602C19.5101 10.6593 19.428 10.7447 19.3314 10.8111C19.2347 10.8775 19.1255 10.9234 19.0103 10.9462C18.8952 10.9689 18.7766 10.9679 18.6619 10.9433C18.5472 10.9187 18.4387 10.8709 18.3431 10.803C17.0911 10.0468 15.7509 9.44633 14.3526 9.01493C12.9475 8.54508 11.4907 8.24554 10.0139 8.12276C9.90128 8.11664 9.79102 8.08846 9.68936 8.03984C9.58771 7.99122 9.49665 7.92311 9.42139 7.8394C9.34613 7.75568 9.28815 7.65801 9.25074 7.55195C9.21334 7.4459 9.19725 7.33353 9.20339 7.22127C9.20954 7.10901 9.2378 6.99906 9.28656 6.89769C9.33531 6.79633 9.40362 6.70553 9.48757 6.63048C9.57152 6.55543 9.66947 6.49761 9.77582 6.46031C9.88218 6.42302 9.99487 6.40697 10.1074 6.4131C11.7307 6.54283 13.3322 6.86874 14.8767 7.38365C16.4143 7.85792 17.8878 8.5186 19.264 9.35089H19.2565ZM39.1419 2.61302C36.3643 2.35172 32.3812 2.65781 29.8843 3.60223C27.5631 4.41361 25.5733 5.96243 24.2204 8.01078V30.5052C26.1658 29.1756 28.268 28.0898 30.4795 27.2725C33.2747 26.3797 36.2127 26.0164 39.1419 26.2012V2.61302ZM21.8171 30.2737V7.97718C20.5593 5.76358 18.5266 4.28535 16.2281 3.40812C13.6076 2.41144 9.58336 2.18747 7.03404 2.54956L6.89928 26.2758C9.68069 26.175 13.5215 26.5296 16.0783 27.3621C18.1327 28.0262 20.0693 29.0088 21.8171 30.2737Z" fill="black"/>
</g>
<defs>
<clipPath id="clip0_304_19">
<rect width="46" height="36" fill="white"/>
</clipPath>
</defs>
</svg>
