<svg width="346" height="433" viewBox="0 0 346 433" fill="none" xmlns="http://www.w3.org/2000/svg">
<rect width="346" height="432.5" rx="20" fill="#FBFBFB"/>
<path d="M119.891 242.51C120.034 217.775 120.173 193.075 120.31 168.411C120.315 167.617 120.598 166.85 121.109 166.24C121.621 165.631 122.329 165.216 123.113 165.068C132.137 163.199 146.359 163.669 156.017 167.354C162.817 169.795 168.779 174.111 173.204 179.796C177.771 174.383 183.703 170.273 190.392 167.888C199.512 164.427 213.348 163.594 223.263 165.068C224.081 165.178 224.832 165.578 225.379 166.194C225.925 166.81 226.23 167.6 226.238 168.422V242.82C226.237 243.271 226.146 243.717 225.971 244.134C225.795 244.55 225.539 244.927 225.217 245.245C224.895 245.562 224.512 245.813 224.092 245.984C223.672 246.154 223.222 246.24 222.768 246.238C222.501 246.234 222.234 246.202 221.974 246.141C213.506 245.049 204.901 245.848 196.783 248.48C190.786 250.703 185.095 253.667 179.843 257.302C187.228 255.024 194.927 253.907 202.659 253.991C212.582 254.148 222.456 255.395 232.103 257.708V179.849H235.552C236.466 179.849 237.343 180.211 237.99 180.854C238.637 181.496 239 182.368 239 183.278V262.194C239 263.103 238.637 263.975 237.99 264.618C237.343 265.261 236.466 265.622 235.552 265.622C235.186 265.619 234.823 265.558 234.477 265.441C224.086 262.6 213.38 261.046 202.605 260.816C193.083 260.697 183.646 262.613 174.934 266.434C174.349 266.804 173.671 267 172.978 267C172.286 267 171.608 266.804 171.023 266.434C162.311 262.612 152.874 260.696 143.352 260.816C132.601 261.059 121.921 262.62 111.555 265.462C111.209 265.579 110.846 265.641 110.48 265.644C110.023 265.648 109.569 265.562 109.146 265.39C108.722 265.218 108.338 264.964 108.014 264.643C107.69 264.322 107.433 263.94 107.259 263.52C107.085 263.099 106.997 262.649 107 262.194V183.278C107 182.368 107.363 181.496 108.01 180.854C108.657 180.211 109.534 179.849 110.448 179.849H113.896V257.708C123.544 255.395 133.418 254.148 143.341 253.991C151.63 253.894 159.877 255.183 167.736 257.804C162.772 253.812 157.114 250.757 151.043 248.79C143.523 246.334 132.051 245.511 123.661 246.227C123.206 246.271 122.747 246.225 122.31 246.091C121.874 245.957 121.468 245.738 121.117 245.447C120.766 245.155 120.477 244.798 120.267 244.395C120.056 243.991 119.928 243.55 119.891 243.098C119.88 242.902 119.88 242.706 119.891 242.51ZM186.105 232.781C185.834 232.981 185.525 233.125 185.196 233.202C184.867 233.279 184.526 233.288 184.194 233.229C183.861 233.169 183.544 233.043 183.263 232.857C182.981 232.671 182.741 232.43 182.557 232.148C182.373 231.867 182.249 231.55 182.193 231.219C182.137 230.888 182.15 230.549 182.23 230.223C182.311 229.897 182.459 229.59 182.663 229.323C182.868 229.056 183.125 228.833 183.42 228.669C187.383 226.222 191.643 224.284 196.096 222.901C200.614 221.381 205.305 220.423 210.06 220.05C210.384 220.032 210.707 220.078 211.012 220.185C211.317 220.292 211.598 220.457 211.839 220.672C212.08 220.886 212.276 221.146 212.416 221.436C212.556 221.726 212.637 222.041 212.655 222.362C212.672 222.683 212.626 223.005 212.519 223.308C212.412 223.612 212.245 223.891 212.029 224.131C211.813 224.37 211.552 224.565 211.26 224.704C210.969 224.843 210.652 224.924 210.329 224.941C206.015 225.3 201.762 226.183 197.664 227.569C193.605 228.813 189.721 230.564 186.105 232.781ZM186.32 213.812C185.769 214.161 185.101 214.277 184.463 214.136C183.826 213.995 183.271 213.608 182.92 213.06C182.57 212.511 182.453 211.847 182.595 211.213C182.737 210.58 183.126 210.028 183.678 209.679C187.633 207.287 191.868 205.386 196.289 204.019C200.735 202.539 205.345 201.599 210.018 201.221C210.657 201.21 211.275 201.446 211.743 201.879C212.211 202.312 212.492 202.908 212.527 203.543C212.562 204.178 212.348 204.801 211.93 205.282C211.512 205.763 210.923 206.065 210.286 206.123C206.033 206.474 201.838 207.334 197.793 208.686C193.773 209.923 189.92 211.645 186.32 213.812ZM186.385 194.909C186.11 195.081 185.804 195.198 185.485 195.253C185.165 195.308 184.837 195.3 184.52 195.229C184.204 195.158 183.904 195.026 183.639 194.84C183.373 194.654 183.148 194.418 182.974 194.145C182.801 193.872 182.683 193.568 182.627 193.25C182.572 192.932 182.58 192.606 182.652 192.291C182.723 191.976 182.856 191.679 183.043 191.415C183.23 191.151 183.468 190.926 183.742 190.754C187.691 188.373 191.92 186.482 196.332 185.125C200.764 183.652 205.359 182.72 210.018 182.349C210.341 182.331 210.664 182.377 210.969 182.484C211.274 182.59 211.555 182.756 211.796 182.971C212.037 183.185 212.233 183.445 212.373 183.735C212.513 184.025 212.594 184.34 212.612 184.661C212.629 184.982 212.583 185.304 212.476 185.607C212.369 185.91 212.202 186.19 211.986 186.429C211.77 186.669 211.509 186.864 211.217 187.003C210.926 187.142 210.609 187.223 210.286 187.24C206.048 187.591 201.868 188.448 197.836 189.793C193.823 191.027 189.977 192.745 186.385 194.909ZM162.58 228.669C162.875 228.833 163.132 229.056 163.337 229.323C163.541 229.59 163.689 229.897 163.769 230.223C163.85 230.549 163.863 230.888 163.807 231.219C163.751 231.55 163.627 231.867 163.443 232.148C163.259 232.43 163.019 232.671 162.737 232.857C162.456 233.043 162.139 233.169 161.806 233.229C161.474 233.288 161.133 233.279 160.804 233.202C160.475 233.125 160.165 232.981 159.894 232.781C156.292 230.567 152.423 228.816 148.379 227.569C144.281 226.183 140.027 225.3 135.714 224.941C135.391 224.922 135.075 224.84 134.783 224.7C134.492 224.56 134.232 224.363 134.017 224.123C133.802 223.882 133.637 223.602 133.531 223.298C133.425 222.994 133.38 222.672 133.399 222.351C133.418 222.03 133.5 221.716 133.642 221.426C133.783 221.137 133.98 220.878 134.222 220.664C134.464 220.45 134.746 220.286 135.051 220.181C135.357 220.075 135.681 220.031 136.004 220.05C140.759 220.423 145.45 221.381 149.969 222.901C154.422 224.284 158.681 226.222 162.644 228.669H162.58ZM162.322 209.679C162.873 210.033 163.261 210.591 163.399 211.229C163.537 211.866 163.414 212.533 163.058 213.081C162.702 213.629 162.141 214.014 161.5 214.151C160.858 214.288 160.188 214.167 159.637 213.812C156.037 211.645 152.184 209.923 148.164 208.686C144.119 207.334 139.924 206.474 135.671 206.123C135.017 206.079 134.407 205.778 133.976 205.288C133.545 204.797 133.328 204.156 133.372 203.506C133.416 202.856 133.718 202.25 134.212 201.821C134.705 201.393 135.35 201.177 136.004 201.221C140.677 201.599 145.286 202.539 149.732 204.019C154.153 205.386 158.388 207.287 162.344 209.679H162.322ZM162.258 190.754C162.553 190.915 162.812 191.134 163.02 191.398C163.227 191.662 163.377 191.965 163.462 192.289C163.547 192.613 163.564 192.951 163.513 193.282C163.462 193.613 163.343 193.93 163.164 194.214C162.985 194.497 162.75 194.742 162.473 194.932C162.195 195.122 161.882 195.253 161.551 195.318C161.221 195.383 160.881 195.38 160.551 195.31C160.222 195.24 159.911 195.103 159.637 194.909C156.044 192.745 152.198 191.027 148.185 189.793C144.153 188.448 139.973 187.591 135.735 187.24C135.412 187.223 135.096 187.142 134.804 187.003C134.512 186.864 134.251 186.669 134.035 186.429C133.819 186.19 133.653 185.91 133.545 185.607C133.438 185.304 133.392 184.982 133.41 184.661C133.427 184.34 133.508 184.025 133.648 183.735C133.788 183.445 133.984 183.185 134.225 182.971C134.466 182.756 134.747 182.59 135.052 182.484C135.357 182.377 135.681 182.331 136.004 182.349C140.662 182.72 145.257 183.652 149.689 185.125C154.102 186.482 158.33 188.373 162.279 190.754H162.258ZM219.32 171.476C211.35 170.728 199.92 171.604 192.755 174.306C186.094 176.628 180.384 181.059 176.502 186.92V251.279C182.084 247.474 188.117 244.368 194.463 242.03C202.484 239.475 210.915 238.436 219.32 238.964V171.476ZM169.605 250.617V186.824C165.996 180.49 160.163 176.261 153.567 173.751C146.048 170.899 134.5 170.259 127.185 171.295L126.798 239.178C134.779 238.89 145.801 239.904 153.138 242.286C159.033 244.186 164.59 246.997 169.605 250.617Z" fill="#E8E8E8"/>
</svg>
